<svg xmlns="http://www.w3.org/2000/svg" xmlns:xlink="http://www.w3.org/1999/xlink" viewBox="0 0 134 149.044">
  <defs>
    <style>
      .cls-1 {
        fill: #fff;
      }

      .cls-2 {
        filter: url(#Path_1338);
      }

      .cls-3 {
        filter: url(#Path_1337);
      }
    </style>
    <filter id="Path_1337" x="0" y="0" width="134" height="149.044" filterUnits="userSpaceOnUse">
      <feOffset input="SourceAlpha"/>
      <feGaussianBlur stdDeviation="2" result="blur"/>
      <feFlood flood-color="#fff"/>
      <feComposite operator="in" in2="blur"/>
      <feComposite in="SourceGraphic"/>
    </filter>
    <filter id="Path_1338" x="13.281" y="53.406" width="106.579" height="62.075" filterUnits="userSpaceOnUse">
      <feOffset input="SourceAlpha"/>
      <feGaussianBlur stdDeviation="2" result="blur-2"/>
      <feFlood flood-color="#fff"/>
      <feComposite operator="in" in2="blur-2"/>
      <feComposite in="SourceGraphic"/>
    </filter>
  </defs>
  <g id="Group_735" data-name="Group 735" transform="translate(-933.203 -502)">
    <g class="cls-3" transform="matrix(1, 0, 0, 1, 933.2, 502)">
      <path id="Path_1337-2" data-name="Path 1337" class="cls-1" d="M121.977,61.357c-.013-2.431-.054-4.869-.061-7.3-.013-3.6-.074-7.2-.135-10.8a22.34,22.34,0,0,0-.168-3.489,13.1,13.1,0,0,0-6.459-9.375c-4.97-2.984-9.968-5.913-14.945-8.883-10.965-6.54-21.9-13.12-32.887-19.619A11.717,11.717,0,0,0,54.728,1.86C46.8,6.514,38.935,11.269,31.042,15.976Q19.5,22.856,7.954,29.716a17.255,17.255,0,0,0-4.4,3.381,12.8,12.8,0,0,0-3.28,8.23C.222,43.112.2,44.89.162,46.674.128,48.9.094,51.14.074,53.369c-.02,2.808-.027,5.61-.04,8.419a.556.556,0,0,1-.034.3V75.015a.5.5,0,0,1,.034.3c.007,1.03.013,2.068.02,3.1.013,2.458.013,4.917.061,7.368.061,3.253.094,6.506.141,9.759a12.33,12.33,0,0,0,.256,2.438,13.22,13.22,0,0,0,6.425,8.809c5.092,3.037,10.2,6.048,15.3,9.085,10.837,6.466,21.646,12.978,32.517,19.4a11.708,11.708,0,0,0,12.534-.007c7.052-4.129,14.036-8.365,21.054-12.547,9-5.368,18.03-10.682,27-16.1a12.606,12.606,0,0,0,6.385-10.574c.141-2.539.114-5.092.148-7.637s.067-5.092.088-7.637q.03-5.082.04-10.17Q122.008,65.963,121.977,61.357Zm-5.543,12.116c-.007,2.93-.04,5.859-.067,8.789-.02,2.229-.04,4.465-.067,6.695-.034,2.276-.034,4.553-.135,6.829a7.24,7.24,0,0,1-3.159,5.678c-1.219.9-2.579,1.576-3.879,2.357q-12.083,7.213-24.172,14.413Q74.7,124.346,64.447,130.464a6.44,6.44,0,0,1-6.957-.034q-9.87-5.87-19.72-11.773-14.042-8.4-28.105-16.743a7.536,7.536,0,0,1-3.772-5.5,16.574,16.574,0,0,1-.1-2.384c-.034-2.532-.067-5.071-.1-7.6-.027-2.344-.04-4.688-.067-7.031-.061-4.58-.047-9.16-.047-13.739q0-3.687.02-7.375.02-3.566.067-7.132c.047-2.99.128-5.974.128-8.958A7.832,7.832,0,0,1,8.17,36.323a10.963,10.963,0,0,1,2.1-1.5q11.678-6.9,23.317-13.881Q45.539,13.808,57.5,6.675a6.513,6.513,0,0,1,7.078.034c15.868,9.436,31.675,18.972,47.569,28.354a7.9,7.9,0,0,1,3.852,5,11.446,11.446,0,0,1,.2,2.707c.02,1.5.007,3,.007,4.506.115,4.129.162,8.257.189,12.386Q116.445,66.58,116.434,73.473Z" transform="translate(6 5.96)"/>
    </g>
    <g class="cls-2" transform="matrix(1, 0, 0, 1, 933.2, 502)">
      <path id="Path_1338-2" data-name="Path 1338" class="cls-1" d="M274.827,793a.505.505,0,0,0-.424.209q-3.718,4.455-7.442,8.91-5.89,7.051-11.786,14.1-5.1,6.1-10.2,12.211c-.162.195-.391.35-.438.626-.162.02-.2-.128-.269-.215-4.465-5.448-9-10.844-13.517-16.245q-8.092-9.669-16.164-19.343a.613.613,0,0,0-.539-.242q-8.254.01-16.5.007a.531.531,0,0,0-.343.047c.094.121.182.229.269.337.869,1.031,1.731,2.061,2.6,3.091q8.8,10.5,17.592,21,8.213,9.8,16.433,19.6A25.548,25.548,0,0,0,236.64,840a11.4,11.4,0,0,0,10.136,2.842,10.548,10.548,0,0,0,6.324-3.671c.1-.107.2-.2.3-.316,1.192-1.421,2.378-2.849,3.57-4.277q3.566-4.252,7.132-8.513,7.051-8.425,14.11-16.844,6.557-7.829,13.12-15.652c.141-.168.276-.336.451-.559h-.256Q283.179,793.007,274.827,793Z" transform="translate(-177.92 -733.59)"/>
    </g>
  </g>
</svg>
