<svg xmlns="http://www.w3.org/2000/svg" viewBox="0 0 36 36">
  <defs>
    <style>
      .cls-1 {
        fill: #f8f8f8;
      }

      .cls-2 {
        fill: none;
      }
    </style>
  </defs>
  <g id="Group_813" data-name="Group 813" transform="translate(-43 -169)">
    <path id="Path_1348" data-name="Path 1348" class="cls-1" d="M32.323,15.194h-1.29V13.839a5.178,5.178,0,0,0,2.581-4.452h0V7.452h0V6.161a5.161,5.161,0,1,0-10.323,0v1.29h0V9.387h0a5.178,5.178,0,0,0,2.581,4.452v1.355h-1.29A2.588,2.588,0,0,0,22,17.774V19.71a.61.61,0,0,0,.645.645H34.258a.61.61,0,0,0,.645-.645V17.774A2.588,2.588,0,0,0,32.323,15.194ZM28.452,2.29A3.88,3.88,0,0,1,32.323,5.9l-.129-.129a.616.616,0,0,0-.774-.194,9,9,0,0,1-3.032.581,8.275,8.275,0,0,1-2.9-.581.589.589,0,0,0-.71.129l-.194.194A3.88,3.88,0,0,1,28.452,2.29Zm-3.871,7.1V7.71l.839-.839a9.969,9.969,0,0,0,3.032.516,10.47,10.47,0,0,0,3.1-.516l.839.839V9.387a3.882,3.882,0,0,1-3.871,3.871A3.938,3.938,0,0,1,24.581,9.387Zm3.871,5.161a4.16,4.16,0,0,0,1.29-.194v1.226l-.129.129-.9-.452h-.065c-.065,0-.065,0-.129-.065h-.452l-.9.452v-1.29A4.16,4.16,0,0,0,28.452,14.548Zm-3.871,1.935h1.677l.452.452h0c.065.065.129.065.194.129h.065c.065,0,.129.065.194.065h0a.237.237,0,0,0,.194-.065h.065l1.032-.516,1.032.516h0a.388.388,0,0,0,.258.065h0a.237.237,0,0,0,.194-.065H30c.065,0,.129-.065.194-.129h0l.452-.452h1.677a1.294,1.294,0,0,1,1.29,1.29v1.29H23.29v-1.29A1.294,1.294,0,0,1,24.581,16.484Z" transform="translate(39.194 176.645)"/>
    <path id="Path_1349" data-name="Path 1349" class="cls-1" d="M7.1,0A5.978,5.978,0,0,0,3.613,1.29,2.592,2.592,0,0,0,1.29,3.871V9.032h0a5.178,5.178,0,0,0,2.581,4.452v1.355H2.581A2.588,2.588,0,0,0,0,17.419v1.935A.61.61,0,0,0,.645,20H12.258a.61.61,0,0,0,.645-.645V17.419a2.588,2.588,0,0,0-2.581-2.581H9.032V13.484a5.437,5.437,0,0,0,2.323-2.774,4.337,4.337,0,0,1,.258,1.548.645.645,0,0,0,1.29,0V5.806A5.782,5.782,0,0,0,7.1,0ZM3.226,2.774V5.161a1.249,1.249,0,0,1-.645,1.1V3.871A1.249,1.249,0,0,1,3.226,2.774Zm8.387,14.645v1.29H1.29v-1.29a1.294,1.294,0,0,1,1.29-1.29H4.323L6.065,17.29h0c.065,0,.065.065.129.065H6.71c.065,0,.065,0,.129-.065h0l1.742-1.161h1.742A1.294,1.294,0,0,1,11.613,17.419ZM7.742,15.161,6.452,16l-1.29-.839v-1.1a4.16,4.16,0,0,0,1.29.194,4.16,4.16,0,0,0,1.29-.194ZM6.452,12.9A3.882,3.882,0,0,1,2.581,9.032V7.677A2.412,2.412,0,0,0,3.871,6.9a2.575,2.575,0,0,0,1.935.839H7.1A4.48,4.48,0,0,1,10.323,9.1,3.869,3.869,0,0,1,6.452,12.9Zm5.161-4.258-.194-.194-.065-.065A5.788,5.788,0,0,0,7.032,6.452H5.806a1.294,1.294,0,0,1-1.29-1.29v-2.9A4.623,4.623,0,0,1,7.1,1.29a4.488,4.488,0,0,1,4.516,4.516Z" transform="translate(47 177)"/>
    <rect id="Rectangle_297" data-name="Rectangle 297" class="cls-2" width="36" height="36" transform="translate(43 169)"/>
  </g>
</svg>
