<svg xmlns="http://www.w3.org/2000/svg" xmlns:xlink="http://www.w3.org/1999/xlink" viewBox="0 0 66 66">
  <defs>
    <style>
      .cls-1 {
        fill: #1de9b6;
      }

      .cls-2 {
        fill: none;
      }

      .cls-3 {
        filter: url(#Path_1174);
      }

      .cls-4 {
        filter: url(#Path_1173);
      }
    </style>
    <filter id="Path_1173" x="3" y="0" width="60.731" height="66" filterUnits="userSpaceOnUse">
      <feOffset input="SourceAlpha"/>
      <feGaussianBlur stdDeviation="3" result="blur"/>
      <feFlood flood-color="#1ce2b1"/>
      <feComposite operator="in" in2="blur"/>
      <feComposite in="SourceGraphic"/>
    </filter>
    <filter id="Path_1174" x="7.652" y="18.706" width="51.127" height="35.539" filterUnits="userSpaceOnUse">
      <feOffset input="SourceAlpha"/>
      <feGaussianBlur stdDeviation="3" result="blur-2"/>
      <feFlood flood-color="#1ce2b1"/>
      <feComposite operator="in" in2="blur-2"/>
      <feComposite in="SourceGraphic"/>
    </filter>
  </defs>
  <g id="Group_815" data-name="Group 815" transform="translate(-28 -29)">
    <g id="Group_808" data-name="Group 808">
      <g class="cls-4" transform="matrix(1, 0, 0, 1, 28, 29)">
        <path id="Path_1173-2" data-name="Path 1173" class="cls-1" d="M42.723,21.514c0-.852-.019-1.706-.021-2.557,0-1.262-.026-2.522-.047-3.784a7.825,7.825,0,0,0-.059-1.222,4.589,4.589,0,0,0-2.262-3.284C38.592,9.623,36.842,8.6,35.1,7.557c-3.84-2.291-7.671-4.6-11.519-6.872A4.1,4.1,0,0,0,19.169.676c-2.776,1.63-5.532,3.3-8.3,4.944Q6.831,8.03,2.786,10.432a6.044,6.044,0,0,0-1.543,1.184A4.482,4.482,0,0,0,.094,14.5c-.017.625-.026,1.248-.038,1.873-.012.781-.024,1.564-.031,2.345C.019,19.7.017,20.682.012,21.665a.2.2,0,0,1-.012.1V26.3a.174.174,0,0,1,.012.1l.007,1.085c0,.861,0,1.722.021,2.581.021,1.139.033,2.279.05,3.418a4.319,4.319,0,0,0,.09.854,4.63,4.63,0,0,0,2.25,3.085C4.213,38.489,6,39.544,7.787,40.608c3.8,2.265,7.582,4.546,11.389,6.794a4.1,4.1,0,0,0,4.39,0c2.47-1.446,4.916-2.93,7.374-4.395,3.152-1.88,6.315-3.741,9.457-5.64a4.415,4.415,0,0,0,2.236-3.7c.05-.889.04-1.783.052-2.675s.024-1.783.031-2.675q.011-1.78.014-3.562Q42.733,23.128,42.723,21.514Zm-1.941,4.244c0,1.026-.014,2.052-.024,3.078-.007.781-.014,1.564-.024,2.345-.012.8-.012,1.595-.047,2.392a2.536,2.536,0,0,1-1.106,1.989c-.427.314-.9.552-1.359.826q-4.232,2.526-8.466,5.048-3.591,2.141-7.183,4.284a2.256,2.256,0,0,1-2.437-.012q-3.457-2.056-6.907-4.123-4.918-2.94-9.844-5.864A2.64,2.64,0,0,1,2.064,33.8a5.8,5.8,0,0,1-.035-.835L1.993,30.3c-.009-.821-.014-1.642-.024-2.463-.021-1.6-.017-3.208-.017-4.812q0-1.292.007-2.583.007-1.249.024-2.5c.017-1.047.045-2.092.045-3.137a2.743,2.743,0,0,1,.833-2.057A3.84,3.84,0,0,1,3.6,12.22Q7.688,9.8,11.764,7.358q4.186-2.5,8.374-5a2.281,2.281,0,0,1,2.479.012c5.558,3.3,11.094,6.645,16.661,9.931a2.767,2.767,0,0,1,1.349,1.75A4.009,4.009,0,0,1,40.7,15c.007.526,0,1.052,0,1.578.04,1.446.057,2.892.066,4.338Q40.785,23.344,40.781,25.758Z" transform="translate(12 8.96)"/>
      </g>
      <g class="cls-3" transform="matrix(1, 0, 0, 1, 28, 29)">
        <path id="Path_1174-2" data-name="Path 1174" class="cls-1" d="M224.389,793a.177.177,0,0,0-.149.073l-2.607,3.121q-2.063,2.47-4.128,4.937-1.787,2.137-3.574,4.277c-.057.068-.137.123-.153.219-.057.007-.071-.045-.094-.076-1.564-1.908-3.152-3.8-4.734-5.69q-2.834-3.386-5.661-6.775A.215.215,0,0,0,203.1,793q-2.891,0-5.779,0a.186.186,0,0,0-.12.017c.033.042.064.08.094.118l.911,1.083q3.082,3.676,6.162,7.355,2.877,3.432,5.756,6.865a8.945,8.945,0,0,0,.892,1.019,3.994,3.994,0,0,0,3.55,1,3.694,3.694,0,0,0,2.215-1.286c.035-.038.071-.071.1-.111.418-.5.833-1,1.25-1.5l2.5-2.982q2.47-2.951,4.942-5.9,2.3-2.742,4.6-5.482c.05-.059.1-.118.158-.2h-.09Q227.314,793,224.389,793Z" transform="translate(-180.55 -765.29)"/>
      </g>
    </g>
    <rect id="Rectangle_299" data-name="Rectangle 299" class="cls-2" width="66" height="66" transform="translate(28 29)"/>
  </g>
</svg>
