<svg xmlns="http://www.w3.org/2000/svg" viewBox="0 0 36 36">
  <defs>
    <style>
      .cls-1 {
        fill: #fff;
      }

      .cls-2 {
        fill: none;
      }
    </style>
  </defs>
  <g id="Group_809" data-name="Group 809" transform="translate(-43 -165)">
    <path id="Path_14" data-name="Path 14" class="cls-1" d="M25.7,2.627H7.583C7.231.975,5.39,0,3.683,0A3.81,3.81,0,0,0,1.165.894,3.726,3.726,0,0,0,0,3.792V22.1A3.9,3.9,0,0,0,3.9,26H25.675a.671.671,0,0,0,.677-.677V3.3A.648.648,0,0,0,25.7,2.627ZM1.354,3.792a2.472,2.472,0,0,1,.7-1.9,2.45,2.45,0,0,1,1.625-.542c1.273,0,2.627.758,2.627,1.869V19.04A3.941,3.941,0,0,0,3.9,18.2a3.837,3.837,0,0,0-2.546.948ZM25.025,24.646H3.9a2.532,2.532,0,1,1,0-5.065,2.471,2.471,0,0,1,2.41,1.842.672.672,0,0,0,1.327-.162V3.981H25l.027,20.665ZM11.537,20.583h9.235a.671.671,0,0,0,.677-.677V12.188a.678.678,0,0,0-.217-.487L16.792,7.448a.7.7,0,0,0-.921-.027L11.1,11.673a.74.74,0,0,0-.217.515v7.719A.648.648,0,0,0,11.537,20.583Zm.677-8.1L16.3,8.856,20.1,12.485v6.744H12.215Z" transform="translate(48 170)"/>
    <rect id="Rectangle_293" data-name="Rectangle 293" class="cls-2" width="36" height="36" transform="translate(43 165)"/>
  </g>
</svg>
